<svg width="47" height="47" viewBox="0 0 47 47" fill="none" xmlns="http://www.w3.org/2000/svg">
<path d="M40.7738 0.25H5.72619C2.70333 0.25 0.25 2.70333 0.25 5.72619V40.7738C0.25 43.7967 2.70333 46.25 5.72619 46.25H40.7738C43.7967 46.25 46.25 43.7967 46.25 40.7738V5.72619C46.25 2.70333 43.7967 0.25 40.7738 0.25ZM36.3929 16.6786H34.2024C31.8586 16.6786 30.9167 17.2262 30.9167 18.869V22.1548H36.3929L35.2976 27.631H30.9167V44.0595H25.4405V27.631H21.0595V22.1548H25.4405V18.869C25.4405 14.4881 27.631 11.2024 32.0119 11.2024C35.1881 11.2024 36.3929 12.2976 36.3929 12.2976V16.6786Z" fill="#5AA144"/>
</svg>
