<svg width="47" height="47" viewBox="0 0 47 47" fill="none" xmlns="http://www.w3.org/2000/svg">
<path d="M12.9167 0C5.78408 0 0 5.78408 0 12.9167V33.5833C0 40.7159 5.78408 46.5 12.9167 46.5H33.5833C40.7159 46.5 46.5 40.7159 46.5 33.5833V12.9167C46.5 5.78408 40.7159 0 33.5833 0H12.9167ZM38.75 5.16667C40.176 5.16667 41.3333 6.324 41.3333 7.75C41.3333 9.176 40.176 10.3333 38.75 10.3333C37.324 10.3333 36.1667 9.176 36.1667 7.75C36.1667 6.324 37.324 5.16667 38.75 5.16667ZM23.25 10.3333C30.3826 10.3333 36.1667 16.1174 36.1667 23.25C36.1667 30.3826 30.3826 36.1667 23.25 36.1667C16.1174 36.1667 10.3333 30.3826 10.3333 23.25C10.3333 16.1174 16.1174 10.3333 23.25 10.3333ZM23.25 15.5C21.1946 15.5 19.2233 16.3165 17.7699 17.7699C16.3165 19.2233 15.5 21.1946 15.5 23.25C15.5 25.3054 16.3165 27.2767 17.7699 28.7301C19.2233 30.1835 21.1946 31 23.25 31C25.3054 31 27.2767 30.1835 28.7301 28.7301C30.1835 27.2767 31 25.3054 31 23.25C31 21.1946 30.1835 19.2233 28.7301 17.7699C27.2767 16.3165 25.3054 15.5 23.25 15.5Z" fill="#5AA144"/>
</svg>
