<svg width="47" height="47" viewBox="0 0 47 47" fill="none" xmlns="http://www.w3.org/2000/svg">
<path d="M40.7738 0.25H5.72619C2.70333 0.25 0.25 2.70333 0.25 5.72619V40.7738C0.25 43.7967 2.70333 46.25 5.72619 46.25H40.7738C43.7967 46.25 46.25 43.7967 46.25 40.7738V5.72619C46.25 2.70333 43.7967 0.25 40.7738 0.25ZM14.4881 17.7738V38.5833H7.91667V17.7738H14.4881ZM7.91667 11.7171C7.91667 10.1838 9.23095 9.0119 11.2024 9.0119C13.1738 9.0119 14.4114 10.1838 14.4881 11.7171C14.4881 13.2505 13.2614 14.4881 11.2024 14.4881C9.23095 14.4881 7.91667 13.2505 7.91667 11.7171ZM38.5833 38.5833H32.0119C32.0119 38.5833 32.0119 28.4414 32.0119 27.631C32.0119 25.4405 30.9167 23.25 28.1786 23.2062H28.091C25.4405 23.2062 24.3452 25.4624 24.3452 27.631C24.3452 28.6276 24.3452 38.5833 24.3452 38.5833H17.7738V17.7738H24.3452V20.5776C24.3452 20.5776 26.459 17.7738 30.7086 17.7738C35.0567 17.7738 38.5833 20.7638 38.5833 26.8205V38.5833Z" fill="#5AA144"/>
</svg>
